<?xml version="1.0" ?><svg enable-background="new 0 0 64 64" height="64px" id="Layer_1" version="1.1" viewBox="0 0 64 64" width="64px" xml:space="preserve" xmlns="http://www.w3.org/2000/svg" xmlns:xlink="http://www.w3.org/1999/xlink"><circle cx="32" cy="32" fill="#E0995E" r="32"/><path d="M52,42.921C52,44.069,51.105,45,50,45H14c-1.105,0-2-0.931-2-2.079V26.079  C12,24.931,12.895,24,14,24h36c1.105,0,2,0.931,2,2.079V42.921z" fill="#231F20" opacity="0.2"/><path d="M52,40.921C52,42.069,51.105,43,50,43H14c-1.105,0-2-0.931-2-2.079V24.079C12,22.931,12.895,22,14,22h36  c1.105,0,2,0.931,2,2.079V40.921z" fill="#F5CF87"/><g opacity="0.2"><path d="M39.885,38H24.115c-0.892,0-1.615,0.672-1.615,1.5s0.723,1.5,1.615,1.5h15.771   c0.892,0,1.615-0.672,1.615-1.5S40.777,38,39.885,38z" fill="#231F20"/><circle cx="20" cy="39.5" fill="#231F20" r="1.5"/><circle cx="16" cy="39.5" fill="#231F20" r="1.5"/><circle cx="48" cy="39.5" fill="#231F20" r="1.5"/><circle cx="44" cy="39.5" fill="#231F20" r="1.5"/><path d="M20,33.85h-4c-0.828,0-1.5,0.672-1.5,1.5c0,0.828,0.672,1.5,1.5,1.5h4c0.828,0,1.5-0.672,1.5-1.5   C21.5,34.521,20.828,33.85,20,33.85z" fill="#231F20"/><path d="M48,33.85h-4c-0.828,0-1.5,0.672-1.5,1.5c0,0.828,0.672,1.5,1.5,1.5h4c0.828,0,1.5-0.672,1.5-1.5   C49.5,34.521,48.828,33.85,48,33.85z" fill="#231F20"/><circle cx="20" cy="31.5" fill="#231F20" r="1.5"/><circle cx="16" cy="31.5" fill="#231F20" r="1.5"/><circle cx="48" cy="31.5" fill="#231F20" r="1.5"/><circle cx="44" cy="31.5" fill="#231F20" r="1.5"/><circle cx="20" cy="27.516" fill="#231F20" r="1.5"/><circle cx="16" cy="27.516" fill="#231F20" r="1.5"/><circle cx="28" cy="35.35" fill="#231F20" r="1.5"/><circle cx="24" cy="35.35" fill="#231F20" r="1.5"/><circle cx="28" cy="31.5" fill="#231F20" r="1.5"/><circle cx="24" cy="31.5" fill="#231F20" r="1.5"/><circle cx="28" cy="27.516" fill="#231F20" r="1.5"/><circle cx="24" cy="27.516" fill="#231F20" r="1.5"/><circle cx="36" cy="35.35" fill="#231F20" r="1.5"/><circle cx="32" cy="35.35" fill="#231F20" r="1.5"/><circle cx="36" cy="31.5" fill="#231F20" r="1.5"/><circle cx="32" cy="31.5" fill="#231F20" r="1.5"/><circle cx="36" cy="27.516" fill="#231F20" r="1.5"/><circle cx="40" cy="35.35" fill="#231F20" r="1.5"/><circle cx="40" cy="31.5" fill="#231F20" r="1.5"/><circle cx="40" cy="27.516" fill="#231F20" r="1.5"/><circle cx="32" cy="27.516" fill="#231F20" r="1.5"/><circle cx="48" cy="27.516" fill="#231F20" r="1.5"/><circle cx="44" cy="27.516" fill="#231F20" r="1.5"/></g><g><path d="M39.885,37H24.115c-0.892,0-1.615,0.672-1.615,1.5s0.723,1.5,1.615,1.5h15.771   c0.892,0,1.615-0.672,1.615-1.5S40.777,37,39.885,37z" fill="#FFFFFF"/><circle cx="20" cy="38.5" fill="#FFFFFF" r="1.5"/><circle cx="16" cy="38.5" fill="#FFFFFF" r="1.5"/><circle cx="48" cy="38.5" fill="#FFFFFF" r="1.5"/><circle cx="44" cy="38.5" fill="#FFFFFF" r="1.5"/><path d="M20,32.85h-4c-0.828,0-1.5,0.672-1.5,1.5c0,0.828,0.672,1.5,1.5,1.5h4c0.828,0,1.5-0.672,1.5-1.5   C21.5,33.521,20.828,32.85,20,32.85z" fill="#FFFFFF"/><path d="M48,32.85h-4c-0.828,0-1.5,0.672-1.5,1.5c0,0.828,0.672,1.5,1.5,1.5h4c0.828,0,1.5-0.672,1.5-1.5   C49.5,33.521,48.828,32.85,48,32.85z" fill="#FFFFFF"/><circle cx="20" cy="30.5" fill="#FFFFFF" r="1.5"/><circle cx="16" cy="30.5" fill="#FFFFFF" r="1.5"/><circle cx="48" cy="30.5" fill="#FFFFFF" r="1.5"/><circle cx="44" cy="30.5" fill="#FFFFFF" r="1.5"/><circle cx="20" cy="26.516" fill="#FFFFFF" r="1.5"/><circle cx="16" cy="26.516" fill="#FFFFFF" r="1.5"/><circle cx="28" cy="34.35" fill="#FFFFFF" r="1.5"/><circle cx="24" cy="34.35" fill="#FFFFFF" r="1.5"/><circle cx="28" cy="30.5" fill="#FFFFFF" r="1.5"/><circle cx="24" cy="30.5" fill="#FFFFFF" r="1.5"/><circle cx="28" cy="26.516" fill="#FFFFFF" r="1.5"/><circle cx="24" cy="26.516" fill="#FFFFFF" r="1.5"/><circle cx="36" cy="34.35" fill="#FFFFFF" r="1.5"/><circle cx="32" cy="34.35" fill="#FFFFFF" r="1.5"/><circle cx="36" cy="30.5" fill="#FFFFFF" r="1.5"/><circle cx="32" cy="30.5" fill="#FFFFFF" r="1.5"/><circle cx="36" cy="26.516" fill="#FFFFFF" r="1.5"/><circle cx="40" cy="34.35" fill="#FFFFFF" r="1.5"/><circle cx="40" cy="30.5" fill="#FFFFFF" r="1.5"/><circle cx="40" cy="26.516" fill="#FFFFFF" r="1.5"/><circle cx="32" cy="26.516" fill="#FFFFFF" r="1.5"/><circle cx="48" cy="26.516" fill="#FFFFFF" r="1.5"/><circle cx="44" cy="26.516" fill="#FFFFFF" r="1.5"/></g></svg>